# xmcd
#
# Track frame offsets:
# 150
# 19500
# 40582
# 59429
# 73301
# 93410
# 109636
# 123466
# 138861
# 153775
# 166220
# 178599
# 196322
# 209115
# 222089
#
# Disc length: 3163 seconds
#
# Revision: 1
# Processed by: cddbd v1.5.2PL0 Copyright (c) Steve Scherf et al.
# Submitted via: CedeCatalogueitor 2.6.0.6 http://personales.ya.com/cdcatalogueitor
#
DISCID=d00c590f
DTITLE=Tokyo Sex Destruction - Singles
DYEAR=1900
DGENRE=
TTITLE0=All People Get Ready!
TTITLE1=No Reason, Nowhere
TTITLE2=Old Man
TTITLE3=People In Me
TTITLE4=Summer Days
TTITLE5=When The Shadows Cross The River
TTITLE6=Your Best Friend Is Dead
TTITLE7=Old Man (Acoustic Version)
TTITLE8=Get On Your Nkees
TTITLE9=Revolution
TTITLE10=Power To The People
TTITLE11=Another Day
TTITLE12=What's The Limit?
TTITLE13=Soul Music Fm 1977
TTITLE14=Soul Music Party Nº1
EXTD=
EXTT0=
EXTT1=
EXTT2=
EXTT3=
EXTT4=
EXTT5=
EXTT6=
EXTT7=
EXTT8=
EXTT9=
EXTT10=
EXTT11=
EXTT12=
EXTT13=
EXTT14=
PLAYORDER=
